# 3ds Max Wavefront OBJ Exporter v0.97b - (c)2007 guruware
# File Created: 18.04.2012 23:25:31

#
# object basic_head
#

v  2.1124 15.5939 8.6805
v  2.1572 12.9488 8.7876
v  4.1871 14.6586 5.4607
v  4.5976 16.3825 6.0782
v  2.2928 19.8017 9.8513
v  4.9561 20.1298 7.1708
v  2.2018 26.6382 8.3127
v  4.3183 25.7022 6.3983
v  2.6050 28.9804 1.1527
v  5.4568 27.4704 1.6107
v  6.3973 21.0478 1.7597
v  5.1995 16.7015 1.5310
v  4.4714 15.1383 1.6835
v  2.7868 12.9126 3.9949
v  4.3564 25.4607 -2.7240
v  2.6050 25.9996 -4.5922
v  5.0556 19.8834 -3.1750
v  2.6050 18.8832 -5.6287
v  4.8846 16.9179 -2.2045
v  2.6050 16.5880 -3.5497
v  3.4103 15.4600 -2.2971
v  2.6050 15.3479 -3.4978
v  3.0584 13.2494 -2.6745
v  2.6050 13.8194 -4.2859
v  3.7209 12.4946 0.8841
v  1.9576 11.7397 2.5016
v  0.0000 12.3374 4.4926
v  0.0000 10.9400 2.9815
v  0.0000 12.4308 9.5269
v  3.2087 12.1952 -5.7260
v  4.6012 10.5219 -3.9785
v  0.0000 7.5859 1.8221
v  1.4148 8.0435 1.2883
v  3.4305 9.5151 -0.9578
v  0.0000 3.4763 1.7161
v  1.4148 3.7489 0.9886
v  0.0000 0.1616 3.6365
v  6.5839 0.7313 3.0515
v  11.9476 1.5914 -0.1120
v  6.2389 4.7852 -0.4654
v  13.9145 4.6721 -8.9350
v  8.1380 9.1937 -6.4755
v  8.2097 5.2091 -11.8165
v  4.6314 10.8635 -8.1005
v  0.0000 15.4754 9.7088
v  0.0000 19.4090 10.5891
v  0.0000 26.9088 9.1381
v  0.0000 29.5290 0.7665
v  0.0000 26.3417 -5.6806
v  0.0000 18.5785 -6.2160
v  0.0000 16.7195 -4.2827
v  0.0000 15.6190 -4.1730
v  0.0000 14.3708 -4.9566
v  0.0000 12.7447 -6.1272
v  0.0000 11.4141 -9.1027
v  0.0000 5.8180 -13.8204
v  -2.1124 15.5939 8.6805
v  -4.5976 16.3825 6.0782
v  -4.1871 14.6586 5.4607
v  -2.1572 12.9488 8.7876
v  -2.2928 19.8017 9.8513
v  -4.9561 20.1298 7.1708
v  -2.2018 26.6382 8.3127
v  -4.3183 25.7022 6.3983
v  -2.6050 28.9804 1.1527
v  -5.4568 27.4704 1.6107
v  -6.3973 21.0478 1.7597
v  -5.1995 16.7015 1.5310
v  -4.4714 15.1383 1.6835
v  -2.7868 12.9126 3.9949
v  -2.6050 25.9996 -4.5922
v  -4.3564 25.4607 -2.7240
v  -5.0556 19.8834 -3.1750
v  -2.6050 18.8832 -5.6287
v  -4.8846 16.9179 -2.2045
v  -2.6050 16.5880 -3.5497
v  -3.4103 15.4600 -2.2970
v  -2.6050 15.3479 -3.4978
v  -2.6050 13.8194 -4.2859
v  -3.0584 13.2494 -2.6745
v  -3.7209 12.4946 0.8841
v  -1.9576 11.7397 2.5016
v  -3.2087 12.1952 -5.7260
v  -4.6012 10.5219 -3.9785
v  -1.4148 8.0435 1.2883
v  -3.4305 9.5151 -0.9578
v  -1.4148 3.7489 0.9886
v  -6.5839 0.7313 3.0515
v  -6.2389 4.7852 -0.4654
v  -11.9476 1.5914 -0.1120
v  -8.1380 9.1937 -6.4755
v  -13.9145 4.6721 -8.9350
v  -4.6314 10.8635 -8.1005
v  -8.2097 5.2091 -11.8165
# 94 vertices

vn 0.6336 -0.1186 0.7645
vn 0.6043 -0.5600 0.5668
vn 0.8737 -0.4380 0.2117
vn 0.8898 -0.2636 0.3724
vn 0.5214 -0.0315 0.8527
vn 0.8661 -0.0425 0.4980
vn 0.4912 0.6002 0.6313
vn 0.7863 0.4218 0.4514
vn 0.3505 0.9354 -0.0458
vn 0.7955 0.6059 0.0104
vn 0.9997 -0.0243 0.0098
vn 0.9334 -0.3583 -0.0192
vn 0.9098 -0.4130 -0.0421
vn 0.6123 -0.7807 0.1253
vn 0.8139 0.3296 -0.4784
vn 0.5223 0.5016 -0.6896
vn 0.8500 -0.0684 -0.5223
vn 0.4805 -0.2807 -0.8308
vn 0.8026 -0.4203 -0.4233
vn 0.4353 -0.2893 -0.8525
vn 0.8418 -0.4151 -0.3450
vn 0.6085 0.0437 -0.7923
vn 0.9478 0.2538 -0.1932
vn 0.6890 0.4842 -0.5393
vn 0.9251 -0.2344 0.2986
vn 0.5895 -0.5443 0.5969
vn -0.0000 -0.9494 0.3140
vn 0.0000 -0.5344 0.8452
vn 0.0000 -0.7032 0.7110
vn 0.4963 0.8171 -0.2933
vn 0.7370 0.6206 0.2678
vn 0.0000 -0.1760 0.9844
vn 0.5041 -0.1181 0.8555
vn 0.8290 0.0725 0.5545
vn 0.0000 0.2988 0.9543
vn 0.2908 0.2787 0.9153
vn 0.0000 0.5705 0.8213
vn 0.1703 0.7380 0.6530
vn 0.3612 0.7766 0.5162
vn 0.4326 0.4704 0.7691
vn 0.5575 0.8279 0.0613
vn 0.6550 0.7527 0.0660
vn 0.3466 0.6997 -0.6247
vn 0.3719 0.7922 -0.4838
vn -0.0000 -0.1102 0.9939
vn -0.0000 -0.0575 0.9983
vn -0.0000 0.6448 0.7643
vn -0.0000 0.9944 -0.1057
vn -0.0000 0.5531 -0.8331
vn -0.0000 -0.3660 -0.9306
vn -0.0000 -0.4514 -0.8923
vn 0.0000 0.2282 -0.9736
vn -0.0000 0.5448 -0.8386
vn 0.0000 0.7965 -0.6046
vn 0.0000 0.7922 -0.6103
vn 0.0000 0.6469 -0.7626
vn -0.6336 -0.1186 0.7645
vn -0.8898 -0.2636 0.3724
vn -0.8737 -0.4380 0.2117
vn -0.6043 -0.5600 0.5668
vn -0.5214 -0.0315 0.8527
vn -0.8661 -0.0425 0.4980
vn -0.4912 0.6002 0.6313
vn -0.7863 0.4218 0.4514
vn -0.3505 0.9354 -0.0458
vn -0.7955 0.6059 0.0104
vn -0.9997 -0.0243 0.0098
vn -0.9334 -0.3583 -0.0192
vn -0.9098 -0.4130 -0.0421
vn -0.6123 -0.7807 0.1253
vn -0.5223 0.5016 -0.6896
vn -0.8139 0.3296 -0.4784
vn -0.8500 -0.0684 -0.5223
vn -0.4805 -0.2807 -0.8308
vn -0.8026 -0.4203 -0.4233
vn -0.4353 -0.2893 -0.8525
vn -0.8418 -0.4151 -0.3450
vn -0.6085 0.0437 -0.7923
vn -0.6890 0.4842 -0.5393
vn -0.9478 0.2538 -0.1932
vn -0.9251 -0.2344 0.2986
vn -0.5895 -0.5443 0.5969
vn -0.4963 0.8171 -0.2933
vn -0.7370 0.6206 0.2678
vn -0.5041 -0.1181 0.8555
vn -0.8290 0.0725 0.5545
vn -0.2908 0.2787 0.9153
vn -0.1703 0.7380 0.6530
vn -0.4326 0.4704 0.7691
vn -0.3612 0.7766 0.5162
vn -0.6550 0.7527 0.0660
vn -0.5575 0.8279 0.0613
vn -0.3719 0.7922 -0.4838
vn -0.3466 0.6997 -0.6247
# 94 vertex normals

vt 0.2500 0.2500 0.0000
vt 0.2500 0.0000 0.0000
vt 0.2500 0.5000 0.0000
vt 0.2500 0.7500 0.0000
vt 0.2500 1.0000 0.0000
vt 1.0000 1.0000 1.0000
vt 0.0025 0.0000 0.0000
vt 0.0026 0.2500 0.0000
vt 0.0024 0.5000 0.0000
vt 0.0025 0.7500 0.0000
vt 0.0021 1.0000 0.0000
vt 0.0017 1.0000 0.0000
vt 0.0012 1.0000 0.0000
vt 0.0007 1.0000 0.0000
# 14 texture coords

g basic_head
s 1
f 1/1/1 2/2/2 3/2/3 4/1/4 
f 5/3/5 1/1/1 4/1/4 6/3/6 
f 7/4/7 5/3/5 6/3/6 8/4/8 
f 9/5/9 7/4/7 8/4/8 10/5/10 
f 6/3/6 11/6/11 10/5/10 8/4/8 
f 12/6/12 11/6/11 6/3/6 4/1/4 
f 13/6/13 12/6/12 4/1/4 3/2/3 
f 3/2/3 2/2/2 14/6/14 13/6/13 
f 10/5/10 15/6/15 16/5/16 9/5/9 
f 11/6/11 17/6/17 15/6/15 10/5/10 
f 17/6/17 18/5/18 16/5/16 15/6/15 
f 19/6/19 17/6/17 11/6/11 12/6/12 
f 20/5/20 18/5/18 17/6/17 19/6/19 
f 12/6/12 13/6/13 21/6/21 19/6/19 
f 22/5/22 20/5/20 19/6/19 21/6/21 
f 22/5/22 21/6/21 23/6/23 24/5/24 
f 21/6/21 13/6/13 25/6/25 23/6/23 
f 13/6/13 14/6/14 26/6/26 25/6/25 
f 27/6/27 28/6/28 26/6/26 14/6/14 
f 2/2/2 29/7/29 27/6/27 14/6/14 
f 30/5/30 24/5/24 23/6/23 31/6/31 
f 28/6/28 32/6/32 33/6/33 26/6/26 
f 31/6/31 23/6/23 25/6/25 34/6/34 
f 33/6/33 34/6/34 25/6/25 26/6/26 
f 32/6/32 35/6/35 36/6/36 33/6/33 
f 36/6/36 35/6/35 37/6/37 38/6/38 
f 36/6/36 38/6/38 39/6/39 40/6/40 
f 40/6/40 39/6/39 41/6/41 42/6/42 
f 42/6/42 41/6/41 43/6/43 44/6/44 
f 33/6/33 36/6/36 40/6/40 34/6/34 
f 42/6/42 31/6/31 34/6/34 40/6/40 
f 42/6/42 44/6/44 30/5/30 31/6/31 
f 2/2/2 1/1/1 45/8/45 29/7/29 
f 1/1/1 5/3/5 46/9/46 45/8/45 
f 5/3/5 7/4/7 47/10/47 46/9/46 
f 7/4/7 9/5/9 48/11/48 47/10/47 
f 48/11/48 9/5/9 16/5/16 49/11/49 
f 49/11/49 16/5/16 18/5/18 50/11/50 
f 18/5/18 20/5/20 51/11/51 50/11/50 
f 20/5/20 22/5/22 52/11/52 51/11/51 
f 22/5/22 24/5/24 53/11/53 52/11/52 
f 24/5/24 30/5/30 54/12/54 53/11/53 
f 30/5/30 44/5/44 55/13/55 54/12/54 
f 44/5/44 43/5/43 56/14/56 55/13/55 
f 57/1/57 58/1/58 59/2/59 60/2/60 
f 61/3/61 62/3/62 58/1/58 57/1/57 
f 63/4/63 64/4/64 62/3/62 61/3/61 
f 65/5/65 66/5/66 64/4/64 63/4/63 
f 62/3/62 64/4/64 66/5/66 67/6/67 
f 68/6/68 58/1/58 62/3/62 67/6/67 
f 69/6/69 59/2/59 58/1/58 68/6/68 
f 59/2/59 69/6/69 70/6/70 60/2/60 
f 66/5/66 65/5/65 71/5/71 72/6/72 
f 67/6/67 66/5/66 72/6/72 73/6/73 
f 73/6/73 72/6/72 71/5/71 74/5/74 
f 75/6/75 68/6/68 67/6/67 73/6/73 
f 76/5/76 75/6/75 73/6/73 74/5/74 
f 68/6/68 75/6/75 77/6/77 69/6/69 
f 78/5/78 77/6/77 75/6/75 76/5/76 
f 78/5/78 79/5/79 80/6/80 77/6/77 
f 77/6/77 80/6/80 81/6/81 69/6/69 
f 69/6/69 81/6/81 82/6/82 70/6/70 
f 27/6/27 70/6/70 82/6/82 28/6/28 
f 60/2/60 70/6/70 27/6/27 29/7/29 
f 83/5/83 84/6/84 80/6/80 79/5/79 
f 28/6/28 82/6/82 85/6/85 32/6/32 
f 84/6/84 86/6/86 81/6/81 80/6/80 
f 85/6/85 82/6/82 81/6/81 86/6/86 
f 32/6/32 85/6/85 87/6/87 35/6/35 
f 87/6/87 88/6/88 37/6/37 35/6/35 
f 87/6/87 89/6/89 90/6/90 88/6/88 
f 89/6/89 91/6/91 92/6/92 90/6/90 
f 91/6/91 93/6/93 94/6/94 92/6/92 
f 85/6/85 86/6/86 89/6/89 87/6/87 
f 91/6/91 89/6/89 86/6/86 84/6/84 
f 91/6/91 84/6/84 83/5/83 93/6/93 
f 60/2/60 29/7/29 45/8/45 57/1/57 
f 57/1/57 45/8/45 46/9/46 61/3/61 
f 61/3/61 46/9/46 47/10/47 63/4/63 
f 63/4/63 47/10/47 48/11/48 65/5/65 
f 48/11/48 49/11/49 71/5/71 65/5/65 
f 49/11/49 50/11/50 74/5/74 71/5/71 
f 74/5/74 50/11/50 51/11/51 76/5/76 
f 76/5/76 51/11/51 52/11/52 78/5/78 
f 78/5/78 52/11/52 53/11/53 79/5/79 
f 79/5/79 53/11/53 54/12/54 83/5/83 
f 83/5/83 54/12/54 55/13/55 93/5/93 
f 93/5/93 55/13/55 56/14/56 94/5/94 
# 88 polygons

