<?xml version="1.0" standalone="no"?>
<!DOCTYPE svg PUBLIC "-//W3C//DTD SVG 20010904//EN"
 "http://www.w3.org/TR/2001/REC-SVG-20010904/DTD/svg10.dtd">
<svg version="1.0" xmlns="http://www.w3.org/2000/svg"
 width="250.000000pt" height="250.000000pt" viewBox="0 0 250.000000 250.000000"
 preserveAspectRatio="xMidYMid meet">
<metadata>
Created by potrace 1.14, written by Peter Selinger 2001-2017
</metadata>
<g transform="translate(0.000000,250.000000) scale(0.100000,-0.100000)"
fill="#000000" stroke="none">
<path d="M1200 1655 c0 -7 -5 -15 -11 -17 -7 -2 -13 -35 -15 -83 -2 -44 -4
-82 -5 -85 -1 -3 -1 -8 0 -12 1 -11 -7 -10 -32 4 -20 10 -21 10 -8 -5 7 -10
19 -17 25 -17 13 0 15 -38 3 -57 -4 -6 -2 -13 5 -15 7 -3 5 -7 -6 -11 -11 -5
-15 -3 -10 5 5 7 2 8 -7 3 -11 -6 -12 -5 -1 6 18 19 15 31 -6 20 -26 -14 -38
-1 -38 42 0 28 5 39 19 43 16 5 17 8 6 15 -8 5 -9 9 -3 9 6 0 11 15 12 33 1
22 -3 34 -12 34 -9 0 -13 -11 -11 -34 1 -18 -2 -33 -7 -33 -5 0 -8 6 -7 13 3
23 -1 37 -11 37 -5 0 -10 -7 -10 -16 0 -10 -6 -14 -14 -11 -8 3 -17 1 -20 -6
-3 -7 -4 4 -3 23 2 37 -15 58 -21 26 -3 -13 0 -16 9 -11 7 5 10 4 5 -3 -9 -15
-36 -4 -36 14 0 8 -4 14 -10 14 -9 0 -14 -15 -11 -33 1 -5 -3 -6 -7 -3 -5 3
-7 17 -4 31 3 17 0 25 -10 25 -10 0 -14 -13 -15 -47 -2 -100 1 -95 -38 -89
-30 5 -35 3 -35 -14 0 -11 -6 -20 -13 -20 -7 0 -18 -9 -25 -21 -8 -12 -9 -18
-3 -14 14 8 14 -8 0 -22 -8 -8 -4 -15 12 -27 22 -15 19 -21 -6 -16 -5 1 -7 -2
-3 -5 4 -4 3 -17 -3 -28 -8 -14 -8 -18 0 -13 6 4 11 3 11 -2 0 -5 6 -9 14 -9
11 0 12 6 6 23 -11 29 -5 34 44 33 23 -1 33 -3 23 -6 -9 -2 -15 -9 -11 -14 3
-5 9 -7 13 -5 4 3 8 -1 8 -8 0 -8 -6 -12 -12 -9 -8 3 -11 -4 -8 -20 5 -25 16
-29 42 -13 9 6 12 5 8 -1 -3 -5 0 -10 7 -10 8 0 12 6 9 14 -3 7 -10 13 -16 13
-6 0 -2 7 9 15 16 13 16 14 2 9 -20 -7 -25 11 -6 22 7 4 8 3 4 -4 -4 -8 -2
-10 7 -6 16 6 31 -22 17 -31 -5 -3 -7 -11 -4 -18 6 -16 44 -20 44 -5 0 7 5 6
15 -2 16 -13 65 -6 65 10 0 6 -4 10 -9 10 -4 0 -8 18 -7 40 0 22 5 40 10 40 5
0 3 7 -4 15 -18 22 4 19 23 -3 22 -24 21 -33 0 -25 -15 5 -15 3 2 -11 11 -10
15 -15 10 -12 -6 2 -17 0 -25 -6 -13 -8 -12 -9 2 -5 9 4 19 -1 22 -10 5 -11 2
-14 -11 -9 -17 6 -17 5 0 -8 13 -10 14 -15 6 -18 -9 -3 -7 -6 4 -11 14 -5 17
-1 15 26 -2 50 1 77 10 77 11 0 10 -51 -1 -67 -5 -8 -4 -13 2 -13 6 0 10 -5 9
-12 -2 -7 10 -12 32 -13 44 -1 65 -13 51 -28 -6 -8 -5 -18 4 -31 13 -18 10
-50 -4 -41 -4 2 -8 -2 -8 -9 0 -7 5 -13 11 -13 33 1 45 -4 40 -16 -3 -8 -12
-14 -20 -14 -9 0 -13 6 -9 16 5 12 3 13 -6 4 -6 -6 -9 -20 -5 -30 6 -15 8 -15
16 -3 9 13 10 13 10 0 1 -9 7 -4 15 11 16 29 41 44 50 29 3 -5 28 -7 55 -4 32
3 50 1 50 -6 0 -6 -4 -9 -9 -6 -5 3 -15 -2 -22 -11 -8 -9 -9 -14 -2 -10 6 4
14 1 16 -5 4 -10 6 -10 6 0 1 16 21 6 21 -10 0 -6 -3 -8 -7 -5 -3 4 -13 1 -21
-6 -10 -7 -13 -8 -9 -1 4 7 -1 14 -13 17 -10 3 -21 0 -23 -6 -2 -7 -15 -4 -37
6 -24 12 -37 14 -44 7 -8 -8 -6 -9 7 -5 9 4 17 3 17 -3 0 -5 -21 -8 -49 -7
l-49 3 4 -43 c2 -24 0 -46 -5 -49 -17 -11 -151 25 -151 40 0 30 31 63 53 58
81 -16 84 -16 91 12 9 36 3 40 -71 43 -16 1 -23 7 -23 22 0 20 4 21 60 16 62
-5 68 -2 48 26 -16 21 -205 32 -223 13 -6 -6 -39 -49 -73 -96 -35 -47 -73 -98
-85 -114 -29 -38 -28 -49 8 -57 53 -13 299 -79 331 -90 33 -10 1280 -17 1290
-7 3 3 -14 17 -38 30 -24 14 -113 68 -198 120 -85 52 -212 130 -282 173 -116
71 -128 81 -128 107 0 28 -22 39 -35 18 -4 -6 -10 -8 -15 -5 -5 3 -12 0 -15
-6 -4 -5 -13 -8 -19 -6 -7 3 -13 -1 -13 -9 0 -7 5 -10 10 -7 6 3 7 1 3 -6 -4
-6 -4 -11 1 -10 20 3 30 -2 30 -16 0 -8 -4 -15 -9 -15 -4 0 -8 4 -8 9 0 5 -9
12 -19 16 -17 5 -19 13 -15 66 3 46 0 61 -11 65 -8 4 -15 17 -15 30 0 28 -3
29 -36 8 -14 -10 -23 -23 -20 -31 3 -8 2 -11 -3 -8 -5 3 -12 1 -16 -5 -3 -5 1
-10 9 -10 16 0 18 -8 20 -74 1 -16 7 -31 14 -34 6 -2 12 -10 12 -18 0 -8 3
-13 8 -12 4 2 8 0 9 -5 4 -13 28 -35 33 -32 3 2 12 -1 20 -7 12 -8 12 -9 -2
-4 -10 3 -18 1 -18 -5 0 -6 -9 -1 -20 12 -15 18 -20 20 -18 7 2 -9 -1 -17 -7
-17 -5 0 -9 6 -7 14 1 7 -4 15 -12 18 -9 4 -12 0 -9 -13 3 -10 0 -21 -6 -24
-6 -4 -11 -3 -11 2 0 5 -7 9 -15 9 -8 0 -15 -5 -15 -11 0 -6 -5 -4 -10 4 -9
13 -11 13 -20 0 -5 -8 -10 -10 -10 -4 0 14 -32 13 -42 -1 -5 -6 -8 -5 -8 3 0
7 -4 10 -10 7 -5 -3 -10 -1 -10 4 0 6 -4 11 -10 11 -5 0 -7 -8 -3 -17 5 -15 3
-15 -10 2 -8 10 -12 25 -9 33 4 11 6 11 13 1 4 -8 11 -10 15 -6 4 3 1 13 -5
21 -8 10 -9 16 -1 21 5 3 10 4 10 0 0 -3 9 -1 19 5 16 8 23 6 34 -11 9 -13 17
-16 22 -10 3 6 1 11 -5 11 -6 0 -8 5 -4 12 5 7 2 8 -7 3 -8 -5 -11 -5 -7 0 4
4 3 14 -3 22 -7 8 -8 18 -2 26 11 15 10 57 -1 76 -7 10 -6 12 4 6 10 -6 12 -4
7 8 -4 11 -2 14 9 10 17 -6 19 -23 3 -23 -8 0 -8 -5 1 -15 9 -11 10 -19 1 -28
-8 -10 -7 -17 2 -27 9 -10 9 -11 0 -6 -14 8 -18 -6 -6 -18 8 -7 14 -31 16 -59
1 -10 7 -15 15 -12 8 3 10 0 6 -7 -5 -7 -2 -9 9 -5 10 4 14 2 11 -7 -3 -7 2
-13 11 -13 21 0 19 11 -9 44 -20 24 -24 39 -24 101 0 68 4 77 31 73 13 -2 7
17 -7 22 -8 3 -13 14 -11 24 2 10 4 21 4 26 1 4 5 7 9 7 12 0 11 -34 0 -41 -5
-3 -3 -9 6 -12 13 -5 16 1 16 28 0 28 -4 35 -20 35 -17 0 -20 7 -20 49 0 39
-4 50 -19 54 -26 7 -37 -4 -36 -36 1 -16 -2 -30 -6 -33 -4 -2 -6 9 -4 26 2 16
0 30 -5 30 -6 0 -10 23 -10 50 0 38 -4 50 -15 50 -8 0 -15 -6 -15 -12 0 -7
-12 -24 -26 -37 -15 -14 -24 -32 -21 -42 3 -10 -1 -26 -8 -36 -6 -10 -11 -35
-11 -56 1 -21 -2 -41 -7 -44 -4 -2 -5 -14 -1 -25 4 -14 2 -18 -5 -14 -14 9
-25 -18 -17 -39 4 -12 10 -13 25 -6 23 13 35 3 20 -16 -9 -10 -8 -13 2 -13 9
0 10 -3 4 -8 -14 -10 -15 -52 -2 -52 6 0 3 -6 -8 -13 -14 -11 -15 -16 -5 -22
9 -5 11 -4 6 3 -11 18 0 14 15 -5 8 -9 9 -14 3 -10 -8 5 -11 -4 -9 -26 2 -39
-3 -50 -18 -40 -19 12 -37 12 -37 2 0 -6 -5 -7 -12 -3 -7 4 -23 8 -36 9 -13 0
-27 6 -31 14 -8 12 -26 18 -66 21 -11 1 -14 4 -7 7 6 2 12 12 12 22 0 9 5 22
12 29 9 9 9 12 -1 12 -7 0 -9 5 -5 11 4 8 9 7 15 -2 4 -7 3 -19 -2 -25 -7 -9
0 -13 25 -16 19 -2 32 0 30 4 -5 8 25 12 54 9 14 -2 16 25 2 34 -6 4 -8 10 -5
15 3 5 0 14 -7 22 -17 17 -21 38 -8 38 6 0 10 10 10 22 0 20 -13 18 -16 -3 -1
-5 -3 -11 -4 -14 -6 -13 -5 -31 2 -42 5 -6 5 -14 -2 -18 -6 -3 -8 -11 -5 -16
4 -5 0 -9 -7 -9 -10 0 -9 -3 2 -11 13 -9 13 -10 0 -7 -11 4 -19 39 -10 51 7 9
7 37 -1 37 -5 0 -7 10 -5 23 2 12 9 21 15 20 15 -4 14 14 -1 19 -6 2 -12 11
-14 20 -1 12 3 15 14 10 15 -5 15 -4 3 11 -10 13 -10 17 -1 17 7 0 10 7 6 16
-3 9 -2 12 5 9 6 -4 8 -14 4 -23 -3 -8 0 -19 7 -23 10 -7 10 -11 -1 -21 -10
-9 -12 -10 -7 -1 5 9 2 11 -9 7 -20 -8 -15 -14 18 -20 14 -2 28 0 32 6 4 6 -1
7 -12 3 -16 -6 -16 -5 -4 10 7 9 17 14 22 11 5 -3 9 22 9 55 0 34 -2 61 -5 61
-15 0 -54 -33 -49 -41 9 -15 -3 -10 -16 7 -8 8 -9 14 -4 12 10 -3 14 4 14 27
0 8 -5 15 -11 15 -5 0 -7 -6 -3 -12 5 -9 2 -9 -9 1 -19 15 -19 10 -19 -101 1
-32 -3 -48 -12 -48 -15 0 -16 61 -1 72 6 4 2 8 -7 8 -10 0 -18 -8 -18 -17 -1
-34 -21 14 -26 60 -8 73 -10 82 -21 101 -13 23 -43 30 -43 11z m55 -147 c-1
-15 2 -28 7 -28 5 0 6 -5 2 -11 -4 -8 -9 -8 -17 0 -6 6 -15 7 -22 1 -7 -6 -11
-3 -11 10 0 10 4 16 8 14 4 -3 8 0 8 6 0 6 5 8 12 4 7 -4 8 -3 4 4 -4 6 -13 9
-21 5 -8 -3 -15 -1 -15 5 0 10 16 19 36 19 6 0 10 -13 9 -29z m-235 -8 c0 -5
-5 -10 -11 -10 -5 0 -7 5 -4 10 3 6 8 10 11 10 2 0 4 -4 4 -10z m-21 -19 c2
-1 -4 -11 -15 -23 -17 -19 -17 -21 -1 -15 14 5 16 3 9 -11 -5 -9 -7 -38 -5
-64 3 -49 -1 -55 -27 -37 -13 10 -13 10 1 6 12 -4 15 2 15 26 -1 17 -7 32 -14
35 -10 3 -8 8 5 18 17 13 17 14 1 8 -20 -7 -25 11 -7 22 8 4 7 9 -2 15 -11 7
-11 9 1 9 13 0 13 1 0 10 -14 9 -9 10 39 1z m38 -11 c-2 -11 -6 -22 -9 -26 -4
-3 -5 2 -3 13 2 10 4 21 4 26 1 4 3 7 6 7 3 0 4 -9 2 -20z m220 -62 c1 -27 -2
-36 -10 -32 -7 4 -5 -1 4 -10 12 -13 15 -27 10 -49 -4 -18 -6 -42 -5 -54 1
-19 -2 -20 -22 -11 l-23 11 21 27 c11 16 18 33 14 38 -3 6 -2 12 4 14 6 2 1 9
-10 16 -12 7 -20 8 -20 2 0 -5 4 -10 9 -10 5 0 8 -8 6 -17 -2 -10 -4 -24 -4
-30 -1 -7 -4 -13 -8 -13 -5 0 -9 20 -9 44 -1 36 3 46 20 55 21 11 21 11 -1 5
-18 -4 -22 -2 -17 10 3 8 10 14 14 13 4 -1 7 3 7 8 -1 6 -7 9 -14 7 -16 -4
-17 5 -1 22 18 19 33 -1 35 -46z m33 33 c0 -6 -4 -12 -8 -15 -5 -3 -9 1 -9 9
0 8 4 15 9 15 4 0 8 -4 8 -9z m-250 -15 c0 -3 -4 -8 -10 -11 -5 -3 -10 -1 -10
4 0 6 5 11 10 11 6 0 10 -2 10 -4z m-185 -51 c0 -29 -2 -32 -19 -23 -14 8 -16
12 -6 18 7 4 10 15 7 23 -6 16 2 31 12 21 3 -3 6 -20 6 -39z m438 21 c3 -8 -2
-20 -11 -28 -15 -12 -16 -11 -3 5 9 12 10 17 2 17 -7 0 -9 5 -6 10 8 13 12 13
18 -4z m163 5 c-4 -5 -1 -11 5 -13 6 -2 0 -9 -15 -16 -24 -10 -26 -10 -26 9 0
18 2 20 16 9 8 -8 14 -9 13 -4 -2 14 0 24 7 24 3 0 3 -4 0 -9z m89 -1 c-3 -5
-12 -10 -18 -10 -7 0 -6 4 3 10 19 12 23 12 15 0z m-495 -4 c0 -2 -7 -7 -16
-10 -8 -3 -12 -2 -9 4 6 10 25 14 25 6z m-83 -26 c-1 -11 -5 -20 -9 -20 -3 0
-6 9 -5 20 1 11 5 20 9 20 3 0 6 -9 5 -20z m-37 -10 c0 -5 -2 -10 -4 -10 -3 0
-8 5 -11 10 -3 6 -1 10 4 10 6 0 11 -4 11 -10z m110 6 c0 -3 -4 -8 -10 -11 -5
-3 -10 -1 -10 4 0 6 5 11 10 11 6 0 10 -2 10 -4z m251 -29 c-10 -9 -11 -8 -5
6 3 10 9 15 12 12 3 -3 0 -11 -7 -18z m-242 0 c-2 -1 -13 -9 -24 -17 -19 -14
-19 -14 -6 3 7 9 18 17 24 17 6 0 8 -1 6 -3z m-7 -45 c-7 -2 -9 -9 -6 -14 4
-7 2 -8 -4 -4 -6 4 -9 13 -6 21 4 8 11 12 17 8 8 -5 7 -8 -1 -11z m343 9 c-3
-5 -1 -12 5 -16 15 -9 12 -25 -4 -19 -8 3 -13 13 -11 22 5 23 4 22 11 22 3 0
3 -4 -1 -9z m413 -40 c-2 -5 5 -16 15 -23 17 -13 17 -14 -3 -15 -11 -1 -18 2
-15 8 4 5 -1 12 -9 15 -20 8 -21 24 -1 24 8 0 14 -4 13 -9z m110 -82 c29 -19
52 -40 52 -48 0 -11 -4 -10 -19 3 -11 10 -31 19 -45 20 -22 3 -24 1 -15 -18 9
-18 8 -19 -3 -5 -7 9 -23 21 -35 28 -13 6 -23 18 -23 26 0 9 -6 12 -15 9 -8
-4 -15 -2 -15 4 0 6 6 12 13 15 25 8 55 -2 105 -34z m-596 -4 c-2 -4 2 -12 10
-16 9 -6 9 -9 1 -9 -6 0 -15 5 -18 10 -4 6 -11 7 -17 4 -6 -4 -8 -2 -4 4 3 5
0 13 -6 16 -7 2 -2 3 12 2 14 -2 23 -7 22 -11z m608 -42 c0 5 8 1 17 -8 15
-15 18 -16 28 -2 10 14 15 13 41 -7 16 -12 71 -48 121 -80 51 -32 95 -61 97
-65 8 -13 -123 -6 -136 7 -7 7 -17 12 -24 12 -7 0 -14 3 -16 8 -5 12 -82 68
-93 67 -5 0 -16 -4 -24 -9 -10 -6 -12 -5 -7 2 4 7 2 12 -5 12 -19 0 -1 13 23
17 11 2 26 -4 33 -13 9 -14 14 -14 20 -4 5 9 4 11 -3 6 -7 -4 -12 -3 -12 3 0
20 19 21 30 0 7 -11 14 -18 17 -15 4 3 -2 15 -12 26 -14 15 -21 17 -32 9 -10
-9 -13 -8 -13 0 0 7 -4 10 -9 6 -12 -7 -73 29 -64 39 4 3 10 1 15 -6 4 -7 8
-9 8 -5z m-390 -17 c14 1 30 3 35 4 6 1 12 2 15 0 20 -7 108 -4 119 4 11 9 13
6 7 -14 l-7 -25 15 25 c9 14 15 19 16 13 0 -8 10 -11 29 -7 22 5 30 2 35 -13
3 -10 9 -23 12 -30 3 -7 -2 -10 -13 -8 -10 1 -24 -2 -30 -8 -9 -6 -13 -6 -13
2 0 12 -36 11 -57 -2 -18 -11 -41 2 -53 31 -8 20 -9 22 -6 5 2 -12 -2 -27 -10
-34 -8 -6 -15 -9 -15 -5 -1 3 -2 9 -3 14 -3 14 -25 47 -26 37 0 -6 5 -16 12
-23 9 -9 9 -12 -1 -12 -7 0 -9 -5 -5 -12 4 -7 3 -8 -5 -4 -6 4 -9 12 -6 17 4
5 -4 5 -19 0 -18 -8 -26 -6 -30 5 -3 8 0 14 7 13 24 -3 37 1 37 12 0 8 -5 8
-15 -1 -8 -7 -15 -8 -15 -3 0 5 -7 10 -15 10 -8 0 -12 -4 -9 -9 8 -12 -10 -10
-24 4 -7 7 -12 9 -12 5 0 -4 0 -10 0 -14 0 -5 5 -9 10 -9 6 -1 15 -2 20 -3 21
-2 9 -16 -15 -16 -14 0 -25 6 -25 13 0 6 -5 12 -10 12 -6 0 -5 8 2 19 8 13 17
17 27 12 9 -3 27 -6 41 -5z m341 -1 c21 3 42 -1 50 -8 8 -6 12 -11 10 -10 -11
7 -29 -20 -24 -35 6 -14 5 -15 -9 -2 -11 11 -13 19 -6 28 6 7 8 15 4 19 -3 3
-6 1 -6 -7 0 -10 -4 -10 -17 1 -16 12 -17 12 -6 -1 7 -9 8 -21 4 -29 -6 -9
-10 -7 -14 9 -3 12 -10 19 -16 15 -6 -3 -11 -1 -11 4 0 6 -5 11 -11 11 -8 0
-8 -5 1 -15 7 -8 16 -12 21 -9 5 3 9 -2 9 -10 0 -8 -6 -18 -12 -22 -7 -4 -10
-4 -6 1 5 5 -1 14 -12 22 -11 8 -20 20 -20 28 0 16 22 26 30 14 3 -5 22 -7 41
-4z m-61 -95 c0 -5 -2 -10 -4 -10 -3 0 -8 5 -11 10 -3 6 -1 10 4 10 6 0 11 -4
11 -10z"/>
<path d="M1847 1185 c-15 -11 -16 -13 -2 -18 8 -4 14 -3 14 1 -3 19 2 26 10
13 5 -7 14 -12 20 -10 7 3 4 9 -7 15 -14 9 -22 9 -35 -1z"/>
<path d="M1605 1100 c3 -5 8 -10 11 -10 2 0 4 5 4 10 0 6 -5 10 -11 10 -5 0
-7 -4 -4 -10z"/>
<path d="M1717 1091 c-4 -17 -3 -21 5 -13 5 5 8 16 6 23 -3 8 -7 3 -11 -10z"/>
<path d="M1762 1090 c-7 -11 -8 -20 -3 -20 9 0 24 30 18 36 -1 2 -8 -6 -15
-16z"/>
<path d="M1667 1085 c-7 -16 8 -29 23 -20 10 6 2 35 -10 35 -4 0 -10 -7 -13
-15z"/>
<path d="M1553 1605 c0 -8 4 -12 9 -9 5 3 6 10 3 15 -9 13 -12 11 -12 -6z"/>
<path d="M1114 1442 c3 -6 0 -13 -6 -15 -10 -4 -10 -6 0 -6 7 -1 11 -5 8 -9
-2 -4 6 -8 19 -8 26 0 24 16 -6 34 -12 8 -18 9 -15 4z"/>
<path d="M676 1393 c-3 -3 -6 -30 -6 -59 0 -40 -3 -52 -13 -48 -8 3 -14 -2
-14 -10 0 -8 6 -12 12 -10 6 3 12 -2 12 -10 0 -8 -3 -14 -6 -14 -14 3 -89 -25
-110 -41 -20 -15 -22 -21 -12 -39 10 -19 8 -23 -18 -37 -17 -8 -36 -15 -43
-15 -7 1 2 9 21 19 l34 18 -37 7 c-65 12 -170 -62 -126 -89 21 -13 109 -14
151 -2 53 16 128 62 136 84 3 8 1 24 -5 34 -15 24 -15 26 3 33 8 3 14 0 12 -7
-4 -21 68 -21 89 0 16 17 16 18 1 21 -15 3 -20 20 -16 50 1 4 6 6 13 4 6 -1 3
4 -7 12 -16 12 -14 14 17 13 19 -1 32 -5 30 -9 -3 -4 0 -8 5 -8 6 0 11 14 11
30 0 32 -16 41 -23 13 -3 -10 -5 -1 -6 20 -1 30 -5 37 -22 37 -17 0 -20 -5
-17 -31 2 -25 -2 -33 -19 -40 -21 -8 -23 -6 -23 31 0 37 -10 56 -24 43z"/>
<path d="M1353 1375 c0 -8 4 -12 9 -9 5 3 6 10 3 15 -9 13 -12 11 -12 -6z"/>
<path d="M1442 1348 c-15 -15 -15 -28 0 -28 6 0 8 3 5 7 -4 3 -2 12 4 20 14
16 7 17 -9 1z"/>
<path d="M1396 1335 c4 -8 8 -15 10 -15 2 0 4 7 4 15 0 8 -4 15 -10 15 -5 0
-7 -7 -4 -15z"/>
<path d="M1633 1325 c0 -8 4 -12 9 -9 4 3 8 9 8 15 0 5 -4 9 -8 9 -5 0 -9 -7
-9 -15z"/>
<path d="M1410 1300 c0 -5 5 -10 10 -10 6 0 10 5 10 10 0 6 -4 10 -10 10 -5 0
-10 -4 -10 -10z"/>
<path d="M767 1283 c5 -12 2 -15 -9 -10 -11 4 -14 1 -11 -12 3 -14 15 -17 58
-17 l53 1 -44 28 c-51 32 -56 33 -47 10z m43 -22 c0 -4 -11 -7 -25 -7 -18 0
-22 3 -14 12 10 13 39 9 39 -5z"/>
<path d="M1437 1283 c-10 -9 -9 -23 1 -23 5 0 9 7 9 15 0 17 -1 18 -10 8z"/>
<path d="M1636 1277 c3 -10 9 -15 12 -12 3 3 0 11 -7 18 -10 9 -11 8 -5 -6z"/>
<path d="M1642 1236 c7 -8 15 -12 17 -10 2 2 11 -6 21 -18 12 -15 19 -18 24
-9 4 6 4 10 -1 9 -4 -2 -18 7 -30 20 -25 24 -53 32 -31 8z"/>
<path d="M686 1134 c-75 -54 -136 -100 -136 -103 0 -4 21 -13 48 -20 26 -7 76
-21 111 -31 l63 -19 34 36 c19 20 34 39 34 44 0 4 -21 11 -46 15 l-45 6 27 29
c24 26 33 29 67 24 29 -5 44 -2 58 11 23 21 16 34 -18 34 -22 0 -24 2 -13 15
8 10 27 15 52 13 36 -2 69 14 55 28 -3 4 -40 8 -80 10 l-74 4 -137 -96z"/>
<path d="M1310 1221 c0 -6 4 -13 10 -16 6 -3 7 1 4 9 -7 18 -14 21 -14 7z"/>
<path d="M1516 1221 c-4 -5 0 -12 6 -14 10 -4 9 -8 -2 -16 -17 -12 -14 -13 52
-15 47 -1 56 7 18 17 -11 3 -20 1 -20 -3 0 -5 -9 -8 -19 -7 -11 0 -17 5 -15 9
3 5 10 6 15 3 5 -4 9 -1 9 4 0 6 -7 11 -16 11 -8 0 -12 5 -9 10 3 6 2 10 -4
10 -5 0 -12 -4 -15 -9z"/>
<path d="M1346 1195 c-7 -19 8 -25 54 -21 19 1 41 -2 48 -7 9 -7 11 -6 6 7 -6
16 -17 20 -43 17 -8 -2 -10 2 -5 11 6 11 5 11 -8 0 -11 -9 -18 -10 -23 -2 -9
15 -22 12 -29 -5z m28 -3 c3 -5 -1 -9 -9 -9 -8 0 -12 4 -9 9 3 4 7 8 9 8 2 0
6 -4 9 -8z"/>
<path d="M1325 1110 c-5 -8 -4 -11 2 -7 6 4 14 0 17 -9 3 -8 10 -13 15 -10 5
4 12 1 14 -4 4 -7 5 -6 3 1 -1 6 -5 9 -8 7 -4 -2 -13 6 -21 16 -11 15 -16 16
-22 6z"/>
<path d="M1386 1098 c3 -5 10 -6 15 -3 13 9 11 12 -6 12 -8 0 -12 -4 -9 -9z"/>
</g>
</svg>
