<?xml version="1.0" encoding="UTF-8" standalone="no"?>
<!DOCTYPE svg PUBLIC "-//W3C//DTD SVG 1.1//EN" "http://www.w3.org/Graphics/SVG/1.1/DTD/svg11.dtd">
<svg version="1.1" xmlns="http://www.w3.org/2000/svg" xmlns:xlink="http://www.w3.org/1999/xlink" preserveAspectRatio="xMidYMid meet" viewBox="0 0 640 640" width="512" height="512"><defs><path d="M71.43 434.02L72.68 420.89L77.68 401.52L79.55 389.02L80.8 379.02L83.3 366.52L86.43 356.52L92.05 343.39L97.05 331.52L102.05 321.52L108.3 312.77L116.43 302.77L124.55 292.77L132.05 284.02L139.55 276.52L147.05 269.64L159.55 259.64L172.05 249.02L182.05 240.27L193.93 229.02L204.55 220.27L211.43 212.77L222.05 202.14L228.3 193.39L236.43 181.52L243.93 168.39L251.43 154.02L258.3 140.27L263.93 127.77L268.93 117.77L272.68 107.77L277.68 95.27L280.8 82.14L282.05 70.27" id="e8cNpQffTQ"></path><path d="M304.55 492.77L306.43 475.27L310.8 462.14L315.18 450.27L317.68 440.27L319.55 427.14L323.3 414.02L327.05 400.89L330.8 390.27L333.93 380.27L338.3 367.77L343.3 358.39L349.55 350.27L357.68 341.52L367.05 333.39L376.43 325.89L384.55 319.64L393.3 314.02L406.43 307.14L417.05 300.89L428.93 293.39L437.68 287.77L448.93 278.39L460.8 268.39L470.18 257.77L475.8 248.39L483.3 235.27L488.93 222.14L492.05 212.14L495.8 200.27L498.93 185.27L501.43 173.39L503.3 159.02L505.8 146.52L507.05 135.89L508.93 125.89L510.18 115.27L511.43 105.27" id="d9HxusgO9"></path><path d="M70.8 432.14L92.05 437.77L113.3 440.89L131.43 444.64L149.55 447.77L160.8 449.02L173.93 451.52L188.93 454.64L200.18 456.52L213.93 460.27L224.55 461.52L236.43 465.27L248.3 467.77L260.18 472.77L270.8 476.52L280.8 480.27L290.8 485.27L299.55 490.27" id="a4IpdtUC6"></path><path d="M281.43 70.27L297.05 75.89L307.05 78.39L327.05 81.52L340.18 84.02L350.18 85.27L363.3 87.77L373.3 88.39L383.93 89.02L394.55 89.02L409.55 90.27L423.3 90.89L434.55 91.52L445.8 91.52L458.93 93.39L470.8 95.27L482.05 96.52L493.3 98.39L503.3 100.27L512.68 104.64" id="b4Jv9ZPTE"></path><path d="M302.05 118.39L314.55 120.27L329.55 121.52L342.05 123.39L357.05 125.27L374.55 127.77L388.3 129.02" id="a1o0kSwYwX"></path><path d="M282.05 147.77L299.55 149.02L313.93 151.52L328.93 154.02L339.55 157.14L351.43 159.02" id="cwor5nxwI"></path><path d="M268.93 179.02L289.55 184.02L307.68 189.02L322.68 192.77L332.68 195.27L344.55 196.52" id="d1BLT6rDmp"></path><path d="M164.55 278.39L209.55 284.02L241.43 288.39L251.43 289.64L261.43 290.27" id="b4MyJYzndi"></path><path d="M153.3 306.52L164.55 309.64L175.8 312.77L193.3 317.14L207.68 320.27L218.93 322.14L232.68 325.27L244.55 326.52" id="h6mAfAxmXe"></path></defs><g><g><g><g><use xlink:href="#e8cNpQffTQ" opacity="1" fill-opacity="0" stroke="#000000" stroke-width="12" stroke-opacity="1"></use></g></g><g><g><use xlink:href="#d9HxusgO9" opacity="1" fill-opacity="0" stroke="#000000" stroke-width="12" stroke-opacity="1"></use></g></g><g><g><use xlink:href="#a4IpdtUC6" opacity="1" fill-opacity="0" stroke="#000000" stroke-width="12" stroke-opacity="1"></use></g></g><g><g><use xlink:href="#b4Jv9ZPTE" opacity="1" fill-opacity="0" stroke="#000000" stroke-width="12" stroke-opacity="1"></use></g></g><g><g><use xlink:href="#a1o0kSwYwX" opacity="1" fill-opacity="0" stroke="#000000" stroke-width="12" stroke-opacity="1"></use></g></g><g><g><use xlink:href="#cwor5nxwI" opacity="1" fill-opacity="0" stroke="#000000" stroke-width="12" stroke-opacity="1"></use></g></g><g><g><use xlink:href="#d1BLT6rDmp" opacity="1" fill-opacity="0" stroke="#000000" stroke-width="12" stroke-opacity="1"></use></g></g><g><g><use xlink:href="#b4MyJYzndi" opacity="1" fill-opacity="0" stroke="#000000" stroke-width="12" stroke-opacity="1"></use></g></g><g><g><use xlink:href="#h6mAfAxmXe" opacity="1" fill-opacity="0" stroke="#000000" stroke-width="12" stroke-opacity="1"></use></g></g></g></g></svg>