<?xml version="1.0" encoding="UTF-8" standalone="no"?>
<!DOCTYPE svg PUBLIC "-//W3C//DTD SVG 1.1//EN" "http://www.w3.org/Graphics/SVG/1.1/DTD/svg11.dtd">
<svg version="1.1" xmlns="http://www.w3.org/2000/svg" xmlns:xlink="http://www.w3.org/1999/xlink" preserveAspectRatio="xMidYMid meet" viewBox="0 0 640 640" width="512" height="512"><defs><path d="M539.55 307.46C539.55 354.2 450.5 392.14 340.8 392.14C231.11 392.14 142.05 354.2 142.05 307.46C142.05 260.72 231.11 222.77 340.8 222.77C450.5 222.77 539.55 260.72 539.55 307.46Z" id="d1xDL6urRg"></path><path d="M492.05 307.46C492.05 342.64 423.58 371.21 339.24 371.21C254.9 371.21 186.43 342.64 186.43 307.46C186.43 272.27 254.9 243.71 339.24 243.71C423.58 243.71 492.05 272.27 492.05 307.46Z" id="dIEwsqzvQ"></path><path d="M142.05 189.02L142.05 307.46" id="bc6ks3X8p"></path><path d="M523.93 144.02L523.93 272.77" id="b4zjPCvdyG"></path><path d="M260.8 117.14L260.8 252.77" id="f3T61IhDe"></path><path d="M387.05 195.89L387.05 367.77" id="a2TG9uKo9n"></path></defs><g><g><g><g><use xlink:href="#d1xDL6urRg" opacity="1" fill-opacity="0" stroke="#000000" stroke-width="8" stroke-opacity="1"></use></g></g><g><g><use xlink:href="#dIEwsqzvQ" opacity="1" fill-opacity="0" stroke="#000000" stroke-width="8" stroke-opacity="1"></use></g></g><g><g><use xlink:href="#bc6ks3X8p" opacity="1" fill-opacity="0" stroke="#000000" stroke-width="8" stroke-opacity="1"></use></g></g><g><g><use xlink:href="#b4zjPCvdyG" opacity="1" fill-opacity="0" stroke="#110a0d" stroke-width="8" stroke-opacity="1"></use></g></g><g><g><use xlink:href="#f3T61IhDe" opacity="1" fill-opacity="0" stroke="#110a0d" stroke-width="8" stroke-opacity="1"></use></g></g><g><g><use xlink:href="#a2TG9uKo9n" opacity="1" fill-opacity="0" stroke="#110a0d" stroke-width="8" stroke-opacity="1"></use></g></g></g></g></svg>