<?xml version="1.0" encoding="utf-8"?>
<!-- Generator: Adobe Illustrator 20.1.0, SVG Export Plug-In . SVG Version: 6.00 Build 0)  -->
<svg version="1.1" id="Ebene_1" xmlns="http://www.w3.org/2000/svg" xmlns:xlink="http://www.w3.org/1999/xlink" x="0px" y="0px"
	 viewBox="0 0 425.2 170.1" enable-background="new 0 0 425.2 170.1" xml:space="preserve">
<g>
	<path fill="#575760" d="M318.6,103.2c-7.9,0-14.6-2.7-19.6-7.8c-6.8-7.1-7.8-16.6-7.8-25.8c0-9.1,0.9-18.5,7.8-25.6
		c5-5.1,11.7-7.8,19.6-7.8c10,0,16.3,4.2,19.7,7.8c6.8,7.1,7.8,16.5,7.8,25.6c0,9.2-0.9,18.7-7.8,25.8
		C334.8,99,328.6,103.2,318.6,103.2L318.6,103.2z M40.5,103.2c-8,0-13.6-1.9-17.7-6c-3.4-3.5-5.2-8.6-5.2-14.3
		c0-11.8,8.7-19.1,22.8-19.1h16.3v-3.9c0-8-4-11.4-13.4-11.4c-6.8,0-10.1,1.4-13.6,6L29.3,55l-9.4-8.9l0.4-0.5
		c5.9-6.9,12.3-9.5,23.5-9.5c18,0,27.1,7.6,27.1,22.7v43.6H57v-5C52.4,101.6,47.8,103.2,40.5,103.2L40.5,103.2z M415.6,102.4h-14.2
		V62.6c0-8.7-4.5-13.7-12.3-13.7c-7.9,0-12.7,5.1-12.7,13.7v39.8h-14.2V36.9h13.9v5.5c4.3-4.1,10.1-6.3,16.5-6.3
		c6.6,0,12.2,2.1,16.3,6c4.6,4.5,6.7,10.2,6.7,18.6V102.4L415.6,102.4z M275,102.4h-14.2V36.9H275V102.4L275,102.4z M225.2,102.4
		h-11.4l-24-65.5h15.1l14.7,43.9l14.6-43.9h15.1l-0.3,0.9L225.2,102.4L225.2,102.4z M178.3,102.4h-14.2V36.9h14.2V102.4L178.3,102.4
		z M42.3,74c-7.1,0-10.9,3-10.9,8.6c0,5.7,3.6,8.5,11.1,8.5c4.5,0,8.2-0.3,11.6-3.5c1.8-1.8,2.6-4.6,2.6-9V74H42.3L42.3,74z
		 M318.6,49c-3.6,0-6.6,1.2-8.9,3.5c-3.9,3.9-4.3,10.9-4.3,17.2c0,6.3,0.3,13.3,4.3,17.2c2.4,2.4,5.4,3.6,8.9,3.6
		c3.5,0,6.7-1.2,9-3.6c3.9-3.9,4.3-10.9,4.3-17.2c0-6.3-0.3-13.3-4.3-17.2C325.4,50.2,322.2,49,318.6,49L318.6,49z M267.9,25.6
		c-4.9,0-9-4.1-9-9s4.1-9,9-9c4.9,0,9,4.1,9,9C276.9,21.5,272.8,25.6,267.9,25.6L267.9,25.6z M171.2,25.6c-4.9,0-9-4.1-9-9
		s4.1-9,9-9s9,4.1,9,9C180.2,21.5,176.1,25.6,171.2,25.6L171.2,25.6z"/>
	<polygon fill="#E63B4C" points="142,103.5 117.2,78.7 92.3,103.5 83.3,94.5 108.2,69.7 83.3,44.8 92.3,35.8 117.2,60.7 142,35.8 
		151,44.8 126.2,69.7 151,94.5 	"/>
	<path fill="#575760" d="M414.4,157.2V146c0-2-0.4-3.6-1.7-4.9c-1-1-2.5-1.6-4.3-1.6c-1.7,0-3.4,0.7-4.6,2v-1.7h-3.4v17.4h3.5v-10.6
		c0-2.7,1.6-3.9,3.6-3.9c2,0,3.5,1.2,3.5,3.9v10.6H414.4L414.4,157.2z M392,148.4c0,1.9-0.1,3.7-1.2,4.8c-0.7,0.7-1.5,1-2.6,1
		c-1,0-1.9-0.4-2.6-1c-1.1-1.1-1.2-2.9-1.2-4.8c0-1.9,0.1-3.7,1.2-4.8c0.7-0.7,1.5-1,2.6-1c1,0,1.9,0.4,2.6,1
		C391.9,144.7,392,146.5,392,148.4 M395.5,148.4c0-2.9-0.4-5.1-2.1-6.8c-1.1-1.2-2.9-2.1-5.2-2.1c-2.4,0-4.1,0.9-5.2,2.1
		c-1.6,1.7-2.1,3.9-2.1,6.8c0,3,0.4,5.2,2.1,6.9c1.1,1.2,2.8,2.1,5.2,2.1c2.4,0,4.1-0.9,5.2-2.1
		C395.1,153.6,395.5,151.4,395.5,148.4 M376.2,139.7h-3.5v17.4h3.5V139.7L376.2,139.7z M376.7,134c0-1.2-1-2.3-2.3-2.3
		c-1.2,0-2.3,1-2.3,2.3c0,1.2,1,2.3,2.3,2.3C375.7,136.3,376.7,135.3,376.7,134 M368.5,151.8c0-3.1-1.9-4.6-5.2-4.9l-2.8-0.3
		c-1.8-0.2-2.4-1-2.4-2c0-1.3,1.1-2.2,3.2-2.2c1.6,0,3.2,0.4,4.3,1.3l2.2-2.2c-1.6-1.4-3.9-2-6.5-2c-3.6,0-6.6,1.9-6.6,5.3
		c0,3.1,1.9,4.5,5.2,4.8l2.8,0.3c1.7,0.1,2.3,0.9,2.3,2.1c0,1.6-1.7,2.4-3.8,2.4c-1.7,0-3.6-0.4-5-1.8l-2.3,2.3
		c2.1,2,4.5,2.5,7.3,2.5C365.4,157.4,368.5,155.5,368.5,151.8 M347.3,148.4c0,1.9-0.1,3.7-1.2,4.8c-0.7,0.7-1.5,1-2.6,1
		s-1.9-0.4-2.6-1c-1.1-1.1-1.2-2.9-1.2-4.8c0-1.9,0.2-3.7,1.2-4.8c0.7-0.7,1.5-1,2.6-1c1,0,1.9,0.4,2.6,1
		C347.2,144.7,347.3,146.5,347.3,148.4 M350.8,148.4c0-2.9-0.4-5.1-2.1-6.8c-1.1-1.2-2.9-2.1-5.2-2.1s-4.1,0.9-5.2,2.1
		c-1.6,1.7-2.1,3.9-2.1,6.8c0,3,0.4,5.2,2.1,6.9c1.1,1.2,2.8,2.1,5.2,2.1s4.1-0.9,5.2-2.1C350.4,153.6,350.8,151.4,350.8,148.4
		 M335.3,141.2c-1.2-1.2-2.5-1.6-4.2-1.6c-2,0-3.8,0.9-4.6,2.1v-1.9h-3.4v17.4h3.5v-10.6c0-2.4,1.6-3.9,3.5-3.9
		c1.2,0,1.8,0.4,2.6,1.2L335.3,141.2L335.3,141.2z M315,147h-7.9c0-1.1,0.1-1.6,0.5-2.4c0.6-1.3,1.8-2.2,3.5-2.2s2.9,0.9,3.4,2.2
		C314.8,145.4,314.9,146,315,147 M318.4,149.5v-1.5c0-5-2.7-8.4-7.4-8.4c-4.5,0-7.4,3.3-7.4,8.9c0,6.6,3.5,8.9,7.8,8.9
		c3.1,0,4.7-0.9,6.5-2.7l-2.2-2.1c-1.2,1.2-2.3,1.8-4.2,1.8c-2.9,0-4.4-1.9-4.4-4.9L318.4,149.5L318.4,149.5z M288.2,147h-7.9
		c0-1.1,0.1-1.6,0.5-2.4c0.6-1.3,1.8-2.2,3.5-2.2s2.9,0.9,3.4,2.2C288,145.4,288.1,146,288.2,147 M291.7,149.5v-1.5
		c0-5-2.7-8.4-7.4-8.4c-4.5,0-7.4,3.3-7.4,8.9c0,6.6,3.5,8.9,7.8,8.9c3.1,0,4.7-0.9,6.5-2.7l-2.2-2.1c-1.2,1.2-2.3,1.8-4.2,1.8
		c-2.9,0-4.4-1.9-4.4-4.9L291.7,149.5L291.7,149.5z M276,141.2c-1.2-1.2-2.5-1.6-4.2-1.6c-2,0-3.8,0.9-4.6,2.1v-1.9h-3.4v17.4h3.5
		v-10.6c0-2.4,1.6-3.9,3.5-3.9c1.2,0,1.8,0.4,2.6,1.2L276,141.2L276,141.2z M254.9,150.9c0,1.2-0.2,2.1-0.8,2.6
		c-0.9,0.9-1.9,1-3.3,1c-2.2,0-3.2-0.9-3.2-2.5c0-1.6,1.1-2.5,3.1-2.5h4.1L254.9,150.9L254.9,150.9z M258.4,157.2v-11.7
		c0-4-2.4-6-7.2-6c-2.9,0-4.6,0.6-6.3,2.5l2.3,2.2c1-1.2,1.9-1.7,3.8-1.7c2.7,0,3.8,1.1,3.8,3.3v1.2h-4.6c-4,0-6,2.1-6,5
		c0,1.5,0.5,2.8,1.4,3.8c1.1,1.1,2.5,1.6,4.7,1.6s3.4-0.5,4.6-1.8v1.6L258.4,157.2L258.4,157.2z M242.5,139.7h-3.8l-3.4,12.3
		l-4-12.3h-2.7l-4.1,12.3l-3.4-12.3h-3.7l5.4,17.4h3l4.1-12.2l4.1,12.2h3L242.5,139.7L242.5,139.7z M215.5,157.2v-3h-1.4
		c-1.3,0-1.9-0.8-1.9-2v-9.4h3.4V140h-3.4v-5.3h-3.5v5.3h-2v2.7h2v9.6c0,2.5,1.5,4.8,4.8,4.8H215.5L215.5,157.2z M204.5,142.7V140
		H201v-2.5c0-1.3,0.6-2,1.9-2h1.5v-3h-2.2c-3.3,0-4.8,2.3-4.8,4.8v2.7h-2v2.7h2v14.4h3.5v-14.4H204.5L204.5,142.7z M188.7,148.4
		c0,1.9-0.1,3.7-1.2,4.8c-0.7,0.7-1.5,1-2.6,1c-1,0-1.9-0.4-2.5-1c-1.1-1.1-1.2-2.9-1.2-4.8c0-1.9,0.1-3.7,1.2-4.8
		c0.7-0.7,1.5-1,2.5-1c1,0,1.9,0.4,2.6,1C188.5,144.7,188.7,146.5,188.7,148.4 M192.2,148.4c0-2.9-0.4-5.1-2.1-6.8
		c-1.1-1.2-2.9-2.1-5.2-2.1c-2.4,0-4.1,0.9-5.2,2.1c-1.6,1.7-2.1,3.9-2.1,6.8c0,3,0.4,5.2,2.1,6.9c1.1,1.2,2.8,2.1,5.2,2.1
		c2.4,0,4.1-0.9,5.2-2.1C191.8,153.6,192.2,151.4,192.2,148.4 M174.2,151.8c0-3.1-1.9-4.6-5.2-4.9l-2.8-0.3c-1.8-0.2-2.4-1-2.4-2
		c0-1.3,1.1-2.2,3.2-2.2c1.6,0,3.2,0.4,4.3,1.3l2.2-2.2c-1.6-1.4-3.9-2-6.5-2c-3.6,0-6.6,1.9-6.6,5.3c0,3.1,1.9,4.5,5.2,4.8l2.8,0.3
		c1.7,0.1,2.3,0.9,2.3,2.1c0,1.6-1.7,2.4-3.8,2.4c-1.7,0-3.6-0.4-5-1.8l-2.3,2.3c2.1,2,4.5,2.5,7.3,2.5
		C171.1,157.4,174.2,155.5,174.2,151.8 M144,148.1c0,2.8-0.4,5.5-3.5,5.5c-3.2,0-3.6-2.7-3.6-5.5s0.4-5.5,3.6-5.5
		C143.6,142.6,144,145.4,144,148.1 M147.5,157.1v-17.3h-3.4v1.8c-1.3-1.6-2.7-2.1-4.6-2.1c-1.7,0-3.2,0.6-4.2,1.5
		c-1.7,1.7-2,4.1-2,7.1c0,3,0.3,5.4,2,7.1c1,1,2.4,1.5,4.2,1.5c1.8,0,3.2-0.5,4.5-2v2.2c0,2.3-1.1,4.4-4.1,4.4
		c-1.7,0-2.7-0.5-3.8-1.5l-2.2,2.2c1.8,1.7,3.5,2.3,6.2,2.3C144.7,164.4,147.5,161.3,147.5,157.1 M128.7,157.2V146
		c0-2-0.4-3.6-1.7-4.9c-1-1-2.5-1.6-4.3-1.6c-1.7,0-3.4,0.7-4.6,2v-1.7h-3.4v17.4h3.5v-10.6c0-2.7,1.6-3.9,3.6-3.9
		c2,0,3.5,1.2,3.5,3.9v10.6H128.7L128.7,157.2z M109.1,139.7h-3.5v17.4h3.5V139.7L109.1,139.7z M109.6,134c0-1.2-1-2.3-2.3-2.3
		c-1.2,0-2.3,1-2.3,2.3c0,1.2,1,2.3,2.3,2.3C108.5,136.3,109.6,135.3,109.6,134 M97.3,148.4c0,3.1-0.5,5.8-3.6,5.8s-3.6-2.7-3.6-5.8
		c0-3.1,0.5-5.8,3.6-5.8C96.8,142.6,97.3,145.3,97.3,148.4 M100.8,148.4c0-2.7-0.2-5.6-2-7.4c-1-1-2.5-1.5-4.3-1.5
		c-1.9,0-3.3,0.5-4.6,2.1v-1.8h-3.4v24.5H90v-8.8c1.3,1.5,2.7,2,4.6,2c1.7,0,3.3-0.6,4.2-1.5C100.6,154.1,100.8,151.1,100.8,148.4
		 M78.3,148.4c0,3.1-0.5,5.8-3.6,5.8c-3.2,0-3.6-2.7-3.6-5.8c0-3.1,0.5-5.8,3.6-5.8C77.8,142.6,78.3,145.3,78.3,148.4 M81.8,148.4
		c0-2.7-0.2-5.6-2-7.4c-1-1-2.5-1.5-4.3-1.5c-1.9,0-3.3,0.5-4.6,2.1v-1.8h-3.4v24.5H71v-8.8c1.3,1.5,2.7,2,4.6,2
		c1.7,0,3.3-0.6,4.2-1.5C81.6,154.1,81.8,151.1,81.8,148.4 M59.2,148.4c0,1.9-0.2,3.7-1.2,4.8c-0.7,0.7-1.5,1-2.6,1s-1.9-0.4-2.6-1
		c-1.1-1.1-1.2-2.9-1.2-4.8c0-1.9,0.1-3.7,1.2-4.8c0.7-0.7,1.5-1,2.6-1s1.9,0.4,2.6,1C59.1,144.7,59.2,146.5,59.2,148.4 M62.7,148.4
		c0-2.9-0.4-5.1-2.1-6.8c-1.1-1.2-2.9-2.1-5.2-2.1c-2.4,0-4.1,0.9-5.2,2.1c-1.6,1.7-2.1,3.9-2.1,6.8c0,3,0.4,5.2,2.1,6.9
		c1.1,1.2,2.8,2.1,5.2,2.1c2.4,0,4.1-0.9,5.2-2.1C62.3,153.6,62.7,151.4,62.7,148.4 M44.7,157.2v-3h-1.4c-1.3,0-1.9-0.8-1.9-2v-9.4
		h3.4V140h-3.4v-5.3h-3.5v5.3h-2v2.7h2v9.6c0,2.5,1.5,4.8,4.8,4.8H44.7L44.7,157.2z M33.5,151.8c0-3.1-1.9-4.6-5.2-4.9l-2.8-0.3
		c-1.8-0.2-2.4-1-2.4-2c0-1.3,1.1-2.2,3.2-2.2c1.6,0,3.2,0.4,4.3,1.3l2.2-2.2c-1.6-1.4-3.9-2-6.5-2c-3.6,0-6.6,1.9-6.6,5.3
		c0,3.1,1.9,4.5,5.2,4.8l2.8,0.3c1.7,0.1,2.3,0.9,2.3,2.1c0,1.6-1.7,2.4-3.8,2.4c-1.7,0-3.6-0.4-5-1.8l-2.3,2.3
		c2.1,2,4.5,2.5,7.3,2.5C30.4,157.4,33.5,155.5,33.5,151.8"/>
</g>
</svg>
